<?xml version="1.0" encoding="UTF-8" standalone="no"?>
<!-- Generator: Adobe Illustrator 26.1.0, SVG Export Plug-In . SVG Version: 6.00 Build 0)  -->

<svg
   version="1.1"
   id="svg7427"
   inkscape:export-filename="Logo letras cicas.png"
   x="0px"
   y="0px"
   viewBox="0 0 790 99"
   xml:space="preserve"
   sodipodi:docname="Logo_letras_chicas_con_sombra en blanco y negro.svg"
   inkscape:version="1.2 (dc2aedaf03, 2022-05-15)"
   width="790"
   height="99"
   inkscape:export-xdpi="96"
   inkscape:export-ydpi="96"
   xmlns:inkscape="http://www.inkscape.org/namespaces/inkscape"
   xmlns:sodipodi="http://sodipodi.sourceforge.net/DTD/sodipodi-0.dtd"
   xmlns="http://www.w3.org/2000/svg"
   xmlns:svg="http://www.w3.org/2000/svg"><defs
   id="defs161"><filter
     inkscape:collect="always"
     style="color-interpolation-filters:sRGB"
     id="filter3852"
     x="-0.015122464"
     y="-0.10705961"
     width="1.0302449"
     height="1.2141192"><feGaussianBlur
       inkscape:collect="always"
       stdDeviation="4.1248722"
       id="feGaussianBlur3854" /></filter><filter
     inkscape:collect="always"
     style="color-interpolation-filters:sRGB"
     id="filter4803"
     x="-0.086432119"
     y="-0.078251531"
     width="1.1728642"
     height="1.1565031"><feGaussianBlur
       inkscape:collect="always"
       stdDeviation="1.9260205"
       id="feGaussianBlur4805" /></filter></defs><sodipodi:namedview
   id="namedview159"
   pagecolor="#ffffff"
   bordercolor="#000000"
   borderopacity="0.25"
   inkscape:showpageshadow="2"
   inkscape:pageopacity="0"
   inkscape:pagecheckerboard="0"
   inkscape:deskcolor="#d1d1d1"
   showgrid="false"
   inkscape:zoom="4"
   inkscape:cx="156.625"
   inkscape:cy="48.5"
   inkscape:window-width="1920"
   inkscape:window-height="1009"
   inkscape:window-x="1358"
   inkscape:window-y="-8"
   inkscape:window-maximized="1"
   inkscape:current-layer="svg7427" />
<style
   type="text/css"
   id="style148">
	.st0{fill:#DD1B24;}
	.st1{enable-background:new    ;}
	.st2{fill:#FFFFFF;}
	.st3{fill:#FFCCCC;fill-opacity:0.7529;}
</style>
<path
   id="path7389"
   inkscape:label="fondo"
   sodipodi:nodetypes="ccccc"
   class="st0"
   d="m 15,0 h 69 c 8.3,0 15,6.7 15,15 v 69 c 0,8.3 -6.7,15 -15,15 H 15 C 6.7,99 0,92.3 0,84 V 15 C 0,6.7 6.7,0 15,0 Z"
   style="fill:none" />



<g
   id="icono-3"
   transform="matrix(2.0076165,0,0,1.6458539,-44.210577,-31.315992)"
   inkscape:label="iconoSombra"
   style="display:inline;opacity:0.238372;filter:url(#filter4803);fill:#454545;fill-opacity:1"><rect
     style="fill:#454545;fill-opacity:1;stroke-width:0.533207"
     id="rect1032-4"
     width="39.781406"
     height="52.532631"
     x="25.396687"
     y="23.339689" /><path
     id="path7403-8"
     inkscape:label="lapiz"
     sodipodi:nodetypes="aascsssca"
     class="st3"
     d="m 73.630688,79.688428 c -0.2,0.104683 -0.5,0.104683 -0.7,0 -2.1,-1.360873 -3.1,-4.606033 -3.1,-7.013732 0,-13.085322 0.1,-26.170644 0.2,-39.151283 0,-0.314048 0.2,-0.523413 0.5,-0.523413 h 5.6 c 0.5,0 0.9,0.41873 0.9,0.942143 0,12.457226 0,26.275326 -0.1,38.62787 -0.2,2.82643 -1.2,5.757542 -3.3,7.118415 z"
     style="fill:#454545;fill-opacity:1;stroke-width:1.02315" /><path
     id="path7393-1"
     inkscape:label="borrador"
     class="st3"
     d="m 69.730688,29.3 c -0.5,-2.2 -0.4,-4.5 0.4,-6.7 0.3,-0.8 1,-1.4 1.8,-1.6 2.9,-0.7 4.5,0.3 4.8,3 0.2,2.4 0.3,4.1 0.1,5.3 0,0.3 -0.3,0.6 -0.6,0.6 h -5.9 c -0.3,0 -0.5,-0.3 -0.6,-0.6 z"
     style="fill:#454545;fill-opacity:1" /><path
     id="path1172-4"
     inkscape:label="libreta"
     sodipodi:nodetypes="csscsscsscssccscccccccccscssscsssccccssccccsssssccsssccscccsccssscccssccsccssccssccszzcczzccsccscccccsccccssccccsscccssccs"
     class="st3"
     d="m 38.2,79.7 c -11.6,-0.1 -11.1,0 -12.3,-0.6 -1.1,-0.5 -1.9,-1.6 -2.2,-3 -0.2,-0.8 -0.2,-48.2 0,-50 0.2,-1.8 -0.2,-4.7 0.2,-5 0.5,-0.5 42.9,-0.5 43.2,-0.2 0.3,0.4 0.1,1.5 0.1,1.5 v 13.3 c 0,7.3 0,20 -0.1,28.1 L 67,78.6 66.8,78.8 c -0.2,0.3 -1.3,0.6 -3,0.8 -1.1,0.2 -4.2,0.2 -25.6,0.1 z m 2.4,-4.9 c 0.5,-0.3 0.8,-0.9 0.9,-1.5 0.1,-3.5 0.1,-6.1 0.1,-9.8 L 41.3,63.2 41,62.9 h -5.6 -5.6 l -0.2,0.2 -0.2,0.2 c 0,3.5 -0.1,7 0,10.5 0.1,0.4 0.1,0.6 0.4,0.9 L 30,75 h 5.1 c 5,0 5,0 5.5,-0.2 z m 20.6,-0.9 c 0.8,-0.1 0.8,-0.1 1,-0.3 0.1,-0.2 0.2,-0.5 0.2,-0.7 0.1,-0.4 0,-0.5 -0.2,-0.8 l -0.3,-0.3 c -5.5,0.3 -11.2,-0.4 -16.6,0.3 -0.5,1 -0.4,1.6 0.4,2 5.4,0.1 10.1,0 15.5,-0.2 z M 61,70.1 c 0.8,-0.4 1.2,-1.5 0.7,-2 l -0.2,-0.2 c -5.1,0 -10.2,-0.1 -15.2,0.1 -1.1,0.4 -0.8,1.4 -0.2,2.1 5,0.7 7.1,0.1 14,0.2 0.3,-0.1 0.7,-0.1 0.9,-0.2 z m 1.2,-4.3 c 0.3,-0.3 0.3,-0.4 0.3,-0.8 0,-0.4 0,-0.6 -0.3,-0.8 l -0.3,-0.3 h -16 l -0.3,0.3 c -0.3,0.3 -0.3,0.4 -0.3,0.8 0,0.4 0,0.6 0.3,0.8 l 0.3,0.3 h 16 z m -20.9,-9.7 0.3,-0.3 c 0,-3.3 0.1,-6.7 0,-10 0,-0.3 -0.2,-0.5 -0.3,-0.7 L 41,44.8 H 29.9 l -0.3,0.3 c -0.1,0.1 -0.3,0.4 -0.3,0.7 -0.1,0.7 -0.1,9.4 0,9.8 0.1,0.2 0.2,0.5 0.4,0.6 4,0.4 5.8,0.2 11.2,0.2 z m 20.7,-1 c 0.3,-0.4 0.3,-1 0,-1.4 l -0.3,-0.3 c -5.2,0.2 -10.5,-0.3 -15.7,0.1 -0.6,0.3 -0.8,1 -0.3,1.5 l 0.3,0.3 h 15.8 z m 0,-3.9 c 0.3,-0.4 0.4,-0.9 0.1,-1.2 -4.3,-0.4 -7.7,-0.3 -13.6,-0.4 -2.2,0 -2.4,0 -2.6,0.2 -0.1,0.1 -0.2,0.3 -0.2,0.6 0,0.7 0.2,0.9 1.5,1 4.9,-0.3 9.9,0.5 14.8,-0.2 z m 0,-3.3 c 0.3,0 0.4,-2 0,-1.9 -0.4,0 -16.2,-0.1 -16.2,-0.1 -0.2,0.6 -0.2,1.3 -0.1,1.9 0.4,0 13.6,0.1 16.3,0.1 2.7,0 -0.3,0 0,0 z M 41.2,37.7 c 0.2,-1.6 0.4,-10 0.2,-10.7 0,-1.7 -1.4,-1.3 -3,-1.4 -0.7,0 -8.1,-0.2 -8.3,0.6 -0.5,0.8 -0.4,11 -0.2,11.6 0.3,0.1 10.8,0.1 11.3,-0.1 z M 62,36.9 c 0.6,-0.4 0.7,-1.2 0.2,-1.7 L 61.8,34.8 H 45.9 l -0.3,0.3 c -0.6,0.5 -0.5,1.4 0.1,1.8 5.7,0 9,1.1 16.3,0 z m 0.2,-4.2 c 0.2,-0.3 0.3,-0.4 0.3,-0.8 0,-0.5 -0.2,-1 -0.5,-1.2 -0.3,-0.2 -15.2,-0.1 -15.8,0 -0.9,0.2 -1.1,1.5 -0.3,2.2 C 51.7,33.1 55,33 62,33 Z m -5.4,-3.6 4.6,-0.1 0.3,-0.3 c 0.5,-0.5 0.5,-1.1 0,-1.5 l -0.3,-0.3 c -5,0.4 -11.8,-0.9 -16,0.6 -0.2,0.5 -0.1,1.2 0.3,1.4 0.3,0.2 0.3,0.2 3.4,0.2 1.8,0.1 5.2,0 7.7,0 z"
     style="fill:#454545;fill-opacity:1" /></g><g
   id="icono"
   transform="matrix(1.9330101,0,0,1.5984147,-40.960323,-30.058658)"><rect
     style="fill:#ffffff;fill-opacity:1;stroke-width:0.533207"
     id="rect1032"
     width="39.781406"
     height="52.532631"
     x="25.396687"
     y="23.339689" /><path
     id="path7403"
     inkscape:label="lapiz"
     sodipodi:nodetypes="aascsssca"
     class="st3"
     d="m 73.630688,79.688428 c -0.2,0.104683 -0.5,0.104683 -0.7,0 -2.1,-1.360873 -3.1,-4.606033 -3.1,-7.013732 0,-13.085322 0.1,-26.170644 0.2,-39.151283 0,-0.314048 0.2,-0.523413 0.5,-0.523413 h 5.6 c 0.5,0 0.9,0.41873 0.9,0.942143 0,12.457226 0,26.275326 -0.1,38.62787 -0.2,2.82643 -1.2,5.757542 -3.3,7.118415 z"
     style="fill:#dd1b24;fill-opacity:1;stroke-width:1.02315" /><path
     id="path7393"
     inkscape:label="borrador"
     class="st3"
     d="m 69.730688,29.3 c -0.5,-2.2 -0.4,-4.5 0.4,-6.7 0.3,-0.8 1,-1.4 1.8,-1.6 2.9,-0.7 4.5,0.3 4.8,3 0.2,2.4 0.3,4.1 0.1,5.3 0,0.3 -0.3,0.6 -0.6,0.6 h -5.9 c -0.3,0 -0.5,-0.3 -0.6,-0.6 z"
     style="fill:#dd1b24;fill-opacity:1" /><path
     id="path1172"
     inkscape:label="libreta"
     sodipodi:nodetypes="csscsscsscssccscccccccccscssscsssccccssccccsssssccsssccscccsccssscccssccsccssccssccszzcczzccsccscccccsccccssccccsscccssccs"
     class="st3"
     d="m 38.2,79.7 c -11.6,-0.1 -11.1,0 -12.3,-0.6 -1.1,-0.5 -1.9,-1.6 -2.2,-3 -0.2,-0.8 -0.2,-48.2 0,-50 0.2,-1.8 -0.2,-4.7 0.2,-5 0.5,-0.5 42.9,-0.5 43.2,-0.2 0.3,0.4 0.1,1.5 0.1,1.5 v 13.3 c 0,7.3 0,20 -0.1,28.1 L 67,78.6 66.8,78.8 c -0.2,0.3 -1.3,0.6 -3,0.8 -1.1,0.2 -4.2,0.2 -25.6,0.1 z m 2.4,-4.9 c 0.5,-0.3 0.8,-0.9 0.9,-1.5 0.1,-3.5 0.1,-6.1 0.1,-9.8 L 41.3,63.2 41,62.9 h -5.6 -5.6 l -0.2,0.2 -0.2,0.2 c 0,3.5 -0.1,7 0,10.5 0.1,0.4 0.1,0.6 0.4,0.9 L 30,75 h 5.1 c 5,0 5,0 5.5,-0.2 z m 20.6,-0.9 c 0.8,-0.1 0.8,-0.1 1,-0.3 0.1,-0.2 0.2,-0.5 0.2,-0.7 0.1,-0.4 0,-0.5 -0.2,-0.8 l -0.3,-0.3 c -5.5,0.3 -11.2,-0.4 -16.6,0.3 -0.5,1 -0.4,1.6 0.4,2 5.4,0.1 10.1,0 15.5,-0.2 z M 61,70.1 c 0.8,-0.4 1.2,-1.5 0.7,-2 l -0.2,-0.2 c -5.1,0 -10.2,-0.1 -15.2,0.1 -1.1,0.4 -0.8,1.4 -0.2,2.1 5,0.7 7.1,0.1 14,0.2 0.3,-0.1 0.7,-0.1 0.9,-0.2 z m 1.2,-4.3 c 0.3,-0.3 0.3,-0.4 0.3,-0.8 0,-0.4 0,-0.6 -0.3,-0.8 l -0.3,-0.3 h -16 l -0.3,0.3 c -0.3,0.3 -0.3,0.4 -0.3,0.8 0,0.4 0,0.6 0.3,0.8 l 0.3,0.3 h 16 z m -20.9,-9.7 0.3,-0.3 c 0,-3.3 0.1,-6.7 0,-10 0,-0.3 -0.2,-0.5 -0.3,-0.7 L 41,44.8 H 29.9 l -0.3,0.3 c -0.1,0.1 -0.3,0.4 -0.3,0.7 -0.1,0.7 -0.1,9.4 0,9.8 0.1,0.2 0.2,0.5 0.4,0.6 4,0.4 5.8,0.2 11.2,0.2 z m 20.7,-1 c 0.3,-0.4 0.3,-1 0,-1.4 l -0.3,-0.3 c -5.2,0.2 -10.5,-0.3 -15.7,0.1 -0.6,0.3 -0.8,1 -0.3,1.5 l 0.3,0.3 h 15.8 z m 0,-3.9 c 0.3,-0.4 0.4,-0.9 0.1,-1.2 -4.3,-0.4 -7.7,-0.3 -13.6,-0.4 -2.2,0 -2.4,0 -2.6,0.2 -0.1,0.1 -0.2,0.3 -0.2,0.6 0,0.7 0.2,0.9 1.5,1 4.9,-0.3 9.9,0.5 14.8,-0.2 z m 0,-3.3 c 0.3,0 0.4,-2 0,-1.9 -0.4,0 -16.2,-0.1 -16.2,-0.1 -0.2,0.6 -0.2,1.3 -0.1,1.9 0.4,0 13.6,0.1 16.3,0.1 2.7,0 -0.3,0 0,0 z M 41.2,37.7 c 0.2,-1.6 0.4,-10 0.2,-10.7 0,-1.7 -1.4,-1.3 -3,-1.4 -0.7,0 -8.1,-0.2 -8.3,0.6 -0.5,0.8 -0.4,11 -0.2,11.6 0.3,0.1 10.8,0.1 11.3,-0.1 z M 62,36.9 c 0.6,-0.4 0.7,-1.2 0.2,-1.7 L 61.8,34.8 H 45.9 l -0.3,0.3 c -0.6,0.5 -0.5,1.4 0.1,1.8 5.7,0 9,1.1 16.3,0 z m 0.2,-4.2 c 0.2,-0.3 0.3,-0.4 0.3,-0.8 0,-0.5 -0.2,-1 -0.5,-1.2 -0.3,-0.2 -15.2,-0.1 -15.8,0 -0.9,0.2 -1.1,1.5 -0.3,2.2 C 51.7,33.1 55,33 62,33 Z m -5.4,-3.6 4.6,-0.1 0.3,-0.3 c 0.5,-0.5 0.5,-1.1 0,-1.5 l -0.3,-0.3 c -5,0.4 -11.8,-0.9 -16,0.6 -0.2,0.5 -0.1,1.2 0.3,1.4 0.3,0.2 0.3,0.2 3.4,0.2 1.8,0.1 5.2,0 7.7,0 z"
     style="fill:#dd1b24;fill-opacity:1" /></g>
<text
   xml:space="preserve"
   style="font-weight:bold;font-size:130.238px;font-family:'Comic Sans MS';-inkscape-font-specification:'Comic Sans MS Bold';letter-spacing:-4.84105px;display:inline;opacity:0.194767;mix-blend-mode:normal;fill:#000000;fill-opacity:1;stroke:none;stroke-width:2.442;stroke-dasharray:none;stroke-opacity:1;filter:url(#filter3852)"
   x="115.5322"
   y="112.36668"
   id="text510-8"
   transform="matrix(1.0117145,0,0,0.87767133,2.1319865,-7.3906806)"
   inkscape:label="textoSombra"><tspan
     sodipodi:role="line"
     id="tspan508-6"
     x="115.5322"
     y="112.36668"
     style="font-style:normal;font-variant:normal;font-weight:bold;font-stretch:normal;font-family:'Glaschu Inline';-inkscape-font-specification:'Glaschu Inline Bold';fill:#000000;fill-opacity:1;stroke:none;stroke-width:2.442;stroke-dasharray:none;stroke-opacity:1"><tspan
       style="fill:#000000;fill-opacity:1;stroke:none;stroke-width:2.442;stroke-dasharray:none;stroke-opacity:1"
       id="tspan1847-7"><tspan
   style="font-size:30.9826px;fill:#000000;fill-opacity:1;stroke:none;stroke-width:2.442;stroke-dasharray:none;stroke-opacity:1"
   id="tspan11972-6"> </tspan>BRAIN</tspan><tspan
       style="fill:#000000;fill-opacity:1;stroke:none;stroke-width:2.442;stroke-dasharray:none;stroke-opacity:1"
       id="tspan3407-1">BOOST</tspan></tspan></text><text
   xml:space="preserve"
   style="font-weight:bold;font-size:130.238px;font-family:'Comic Sans MS';-inkscape-font-specification:'Comic Sans MS Bold';letter-spacing:-4.84105px;opacity:1;fill:#a6141b;stroke:none;stroke-width:2.442;stroke-dasharray:none;stroke-opacity:1"
   x="108.41457"
   y="97.192955"
   id="text510"
   transform="scale(1.0274367,0.97329598)"
   inkscape:label="texto"><tspan
     sodipodi:role="line"
     id="tspan508"
     x="108.41457"
     y="97.192955"
     style="font-style:normal;font-variant:normal;font-weight:bold;font-stretch:normal;font-family:'Glaschu Inline';-inkscape-font-specification:'Glaschu Inline Bold';stroke:none;stroke-width:2.442;stroke-dasharray:none;stroke-opacity:1"><tspan
       style="fill:#0d967c;fill-opacity:1;stroke:none;stroke-width:2.442;stroke-dasharray:none;stroke-opacity:1"
       id="tspan1847"><tspan
   style="font-size:30.9826px;stroke:none;stroke-width:2.442;stroke-dasharray:none;stroke-opacity:1"
   id="tspan11972"> </tspan>BRAIN</tspan><tspan
       style="fill:#188e23;fill-opacity:1;stroke:none;stroke-width:2.442;stroke-dasharray:none;stroke-opacity:1"
       id="tspan3407">BOOST</tspan></tspan></text></svg>
