<?xml version="1.0" encoding="utf-8"?>
<!-- Generator: Adobe Illustrator 26.1.0, SVG Export Plug-In . SVG Version: 6.00 Build 0)  -->
<svg version="1.1"
	 id="svg7427" inkscape:export-xdpi="96" inkscape:export-ydpi="96" sodipodi:docname="icono vector dibujo.svg" xmlns:inkscape="http://www.inkscape.org/namespaces/inkscape" xmlns:sodipodi="http://sodipodi.sourceforge.net/DTD/sodipodi-0.dtd" xmlns:svg="http://www.w3.org/2000/svg"
	 xmlns="http://www.w3.org/2000/svg" xmlns:xlink="http://www.w3.org/1999/xlink" x="0px" y="0px" viewBox="0 0 99 99"
	 style="enable-background:new 0 0 99 99;" xml:space="preserve">
<style type="text/css">
	.st0{fill:none;stroke:#EE8D92;stroke-width:2;}
	.st1{fill:none;stroke:#ED8A8E;stroke-width:2;}
	.st2{fill:none;stroke:#DD888E;stroke-width:2;}
	.st3{fill:#DD1B24;}
	.st4{fill:#FFCCCC;fill-opacity:0.7517;}
</style>
<sodipodi:namedview  bordercolor="#000000" borderopacity="0.25" id="namedview7429" inkscape:current-layer="svg7427" inkscape:cx="39.519507" inkscape:cy="59.448147" inkscape:deskcolor="#d1d1d1" inkscape:pagecheckerboard="0" inkscape:pageopacity="0.0" inkscape:showpageshadow="2" inkscape:window-height="1009" inkscape:window-maximized="1" inkscape:window-width="1920" inkscape:window-x="-8" inkscape:window-y="-8" inkscape:zoom="5.9211265" pagecolor="#ffffff" showgrid="false">
	</sodipodi:namedview>
<g id="g7387">
	<path id="path7351" vector-effect="non-scaling-stroke" class="st0" d="M63.8,77.3l0.1-55.5c0-0.5-0.4-1-0.9-1.1
		c-2.9-0.5-5.8-0.8-8.8-0.8c-8.9,0-17.8,0-26.8-0.2c-1.9,0-3.6,0.2-5.1,0.5c-0.9,0.2-1.6,1-1.8,2c-0.4,2.2-0.5,4.3-0.5,6.2
		c0,15.2,0,30.3,0,45.5c0,3.3,1.8,5,5.2,5c10.8,0,21.5,0.1,32.2,0.2c1.9,0,3.7-0.2,5.4-0.7C63.4,78.4,63.8,77.9,63.8,77.3"/>
	<path id="path7353" vector-effect="non-scaling-stroke" class="st0" d="M72.4,29.9l5.9,0c0.3,0,0.5-0.2,0.6-0.6
		c0.1-1.2,0.1-3-0.1-5.3c-0.2-2.7-1.8-3.6-4.8-3c-0.8,0.2-1.5,0.8-1.8,1.6c-0.8,2.2-0.9,4.5-0.4,6.7C71.9,29.6,72.1,29.9,72.4,29.9"
		/>
	<path id="path7355" vector-effect="non-scaling-stroke" class="st0" d="M75.7,77.6c1-1.3,1.8-2.6,2.4-3.8c0.6-1.2,0.9-2.6,0.9-4.3
		C79,57.6,79,45.8,79,33.9c0-0.5-0.4-0.9-0.9-0.9l-5.6,0c-0.3,0-0.5,0.2-0.5,0.5C72,46,71.9,58.5,71.9,71c0,2.3,1,4.5,3.1,6.7
		C75.2,77.8,75.5,77.8,75.7,77.6"/>
	<path id="path7357" vector-effect="non-scaling-stroke" class="st1" d="M37.1,25.4c-3.4-0.6-6.8-0.7-10.1-0.1
		c-0.3,0-0.5,0.3-0.6,0.6c-0.5,3.5-0.6,6.9-0.2,10.4c0,0.3,0.3,0.5,0.6,0.5l10.1-0.1c0.7,0,1.2-0.6,1.2-1.3l-0.3-9.4
		C37.7,25.8,37.4,25.5,37.1,25.4"/>
	<path id="path7359" vector-effect="non-scaling-stroke" class="st1" d="M58.5,27c0-0.5-0.4-1-1-0.9L43,26.1c-0.5,0-0.9,0.4-0.9,1
		l0,0.1c0,0.5,0.4,1,1,0.9L57.5,28C58,28,58.5,27.5,58.5,27L58.5,27"/>
	<path id="path7361" vector-effect="non-scaling-stroke" class="st1" d="M58.9,30.9c0-0.5-0.4-1-1-1L43,30c-0.5,0-1,0.4-1,1l0,0.1
		c0,0.5,0.4,1,1,1L58,32C58.5,32,58.9,31.5,58.9,30.9L58.9,30.9"/>
	<path id="path7363" vector-effect="non-scaling-stroke" class="st1" d="M58.9,35c0-0.5-0.4-1-1-1l-15,0c-0.5,0-1,0.4-1,1v0
		c0,0.5,0.4,1,1,1l15,0C58.5,36,58.9,35.5,58.9,35L58.9,35"/>
	<path id="path7365" vector-effect="non-scaling-stroke" class="st1" d="M38,44.9c0-0.5-0.4-0.9-0.9-0.9l-10.2,0
		c-0.5,0-0.9,0.4-0.9,0.9l0,9.5c0,0.5,0.4,0.9,0.9,0.9l10.2,0c0.5,0,0.9-0.4,0.9-0.9L38,44.9"/>
	<path id="path7367" vector-effect="non-scaling-stroke" class="st2" d="M42.9,46.3c3.6,0.5,7.6,0.7,12.1,0.5c0.1,0,0.6,0,1.5,0.1
		c1.1,0.1,1.8-0.4,2.1-1.3c0.1-0.2-0.1-0.5-0.4-0.5H42.8c-0.4,0-0.6,0.2-0.7,0.5C42,46,42.3,46.2,42.9,46.3"/>
	<path id="path7369" vector-effect="non-scaling-stroke" class="st2" d="M58.7,49.7c0-0.4-0.3-0.6-0.6-0.6L43,48.9
		c-0.3,0-0.6,0.3-0.6,0.6l0,0.1c0,0.4,0.3,0.6,0.6,0.6L58,50.4c0.3,0,0.6-0.3,0.6-0.6L58.7,49.7"/>
	<path id="path7371" vector-effect="non-scaling-stroke" class="st2" d="M58.6,53.4c0-0.4-0.4-0.8-0.8-0.8l-14.9,0
		c-0.4,0-0.8,0.4-0.8,0.8l0,0.1c0,0.4,0.4,0.8,0.8,0.8l14.9,0C58.3,54.3,58.6,54,58.6,53.4L58.6,53.4"/>
	<path id="path7373" vector-effect="non-scaling-stroke" class="st1" d="M37.9,72.1l0.1-9.2c0-0.5-0.4-0.8-0.9-0.8H26.7
		c-0.4,0-0.7,0.3-0.7,0.7V73c0,0.5,0.4,1,1,1h8.8C37.2,74,37.8,73.4,37.9,72.1"/>
	<path id="path7375" vector-effect="non-scaling-stroke" class="st1" d="M58.9,63.8c0-0.4-0.4-0.8-0.8-0.8l-15.3,0
		c-0.4,0-0.8,0.4-0.8,0.8l0,0.4c0,0.4,0.4,0.8,0.8,0.8l15.3,0c0.4,0,0.8-0.4,0.8-0.8L58.9,63.8"/>
	<path id="path7377" vector-effect="non-scaling-stroke" class="st1" d="M58.3,68c0.2-0.5-0.2-1-0.7-1c-4.4,0-8.8,0-13.2,0
		c-2.7,0-3.2,0.5-1.4,1.7c0.4,0.2,0.8,0.4,1.3,0.4c3.8,0,7.6,0,11.4,0c0.1,0,0.3,0,0.8,0.1C57.5,69.2,58,68.8,58.3,68"/>
	<path id="path7379" vector-effect="non-scaling-stroke" class="st1" d="M58.6,72.5c0.2-0.5,0.2-1,0.1-1.2c-0.1-0.2-0.5-0.3-1-0.3
		c-5.1,0-10.1,0-15,0.1c-1.2,0-1.3,0.4-0.4,1.1c0.9,0.7,1.8,1,2.9,0.9c1-0.1,1.6-0.1,1.6-0.1c3.9,0.1,7.7,0,11.5-0.2
		C58.4,72.8,58.6,72.7,58.6,72.5"/>
	<path id="path7381" vector-effect="non-scaling-stroke" class="st1" d="M35.5,27.7c0-0.1-0.1-0.3-0.3-0.3l-7,0
		c-0.1,0-0.3,0.1-0.3,0.3l0,7c0,0.1,0.1,0.3,0.3,0.3l7,0c0.1,0,0.3-0.1,0.3-0.3L35.5,27.7"/>
	<path id="path7383" vector-effect="non-scaling-stroke" class="st1" d="M35.8,46.3c0-0.1-0.1-0.3-0.3-0.3l-7.3,0
		c-0.1,0-0.3,0.1-0.3,0.3l0,6.5c0,0.1,0.1,0.3,0.3,0.3l7.3,0c0.1,0,0.3-0.1,0.3-0.3L35.8,46.3"/>
	<path id="path7385" vector-effect="non-scaling-stroke" class="st1" d="M35.4,64.3c0-0.2-0.2-0.3-0.3-0.3l-6.8,0
		c-0.2,0-0.3,0.2-0.3,0.3l0,7.1c0,0.2,0.2,0.3,0.3,0.3l6.8,0c0.2,0,0.3-0.2,0.3-0.3L35.4,64.3"/>
</g>
<path id="path7389" class="st3" d="M0,0h99v99H0V0z M63.8,77.3l0.1-55.5c0-0.5-0.4-1-0.9-1.1c-2.9-0.5-5.8-0.8-8.8-0.8
	c-8.9,0-17.8,0-26.8-0.2c-1.9,0-3.6,0.2-5.1,0.5c-0.9,0.2-1.6,1-1.8,2c-0.4,2.2-0.5,4.3-0.5,6.2c0,15.2,0,30.3,0,45.5
	c0,3.3,1.8,5,5.2,5c10.8,0,21.5,0.1,32.2,0.2c1.9,0,3.7-0.2,5.4-0.7C63.4,78.4,63.8,77.9,63.8,77.3z M72.4,29.9l5.9,0
	c0.3,0,0.5-0.2,0.6-0.6c0.1-1.2,0.1-3-0.1-5.3c-0.2-2.7-1.8-3.6-4.8-3c-0.8,0.2-1.5,0.8-1.8,1.6c-0.8,2.2-0.9,4.5-0.4,6.7
	C71.9,29.6,72.1,29.9,72.4,29.9z M75.7,77.6c1-1.3,1.8-2.6,2.4-3.8c0.6-1.2,0.9-2.6,0.9-4.3C79,57.6,79,45.8,79,33.9
	c0-0.5-0.4-0.9-0.9-0.9l-5.6,0c-0.3,0-0.5,0.2-0.5,0.5C72,46,71.9,58.5,71.9,71c0,2.3,1,4.5,3.1,6.7C75.2,77.8,75.5,77.8,75.7,77.6z
	"/>
<path id="path7391" class="st4" d="M63.8,77.3c0,0.6-0.4,1.1-0.9,1.2c-1.7,0.5-3.5,0.7-5.4,0.7C46.8,79.1,36,79,25.2,79
	c-3.5,0-5.2-1.7-5.2-5c0-15.2,0-30.3,0-45.5c0-1.9,0.2-4,0.5-6.2c0.2-1,0.9-1.7,1.8-2c1.5-0.4,3.2-0.5,5.1-0.5
	c8.9,0.1,17.8,0.2,26.8,0.2c2.9,0,5.9,0.2,8.8,0.8c0.5,0.1,0.9,0.6,0.9,1.1L63.8,77.3z M37.1,25.4c-3.4-0.6-6.8-0.7-10.1-0.1
	c-0.3,0-0.5,0.3-0.6,0.6c-0.5,3.5-0.6,6.9-0.2,10.4c0,0.3,0.3,0.5,0.6,0.5l10.1-0.1c0.7,0,1.2-0.6,1.2-1.3l-0.3-9.4
	C37.7,25.8,37.4,25.5,37.1,25.4z M58.5,27c0-0.5-0.4-1-1-0.9L43,26.1c-0.5,0-0.9,0.4-0.9,1l0,0.1c0,0.5,0.4,1,1,0.9L57.5,28
	C58,28,58.5,27.5,58.5,27L58.5,27z M58.9,30.9c0-0.5-0.4-1-1-1L43,30c-0.5,0-1,0.4-1,1l0,0.1c0,0.5,0.4,1,1,1L58,32
	C58.5,32,58.9,31.5,58.9,30.9L58.9,30.9z M58.9,35c0-0.5-0.4-1-1-1l-15,0c-0.5,0-1,0.4-1,1v0c0,0.5,0.4,1,1,1l15,0
	C58.5,36,58.9,35.5,58.9,35L58.9,35z M38,44.9c0-0.5-0.4-0.9-0.9-0.9l-10.2,0c-0.5,0-0.9,0.4-0.9,0.9l0,9.5c0,0.5,0.4,0.9,0.9,0.9
	l10.2,0c0.5,0,0.9-0.4,0.9-0.9L38,44.9z M42.9,46.3c3.6,0.5,7.6,0.7,12.1,0.5c0.1,0,0.6,0,1.5,0.1c1.1,0.1,1.8-0.4,2.1-1.3
	c0.1-0.2-0.1-0.5-0.4-0.5H42.8c-0.4,0-0.6,0.2-0.7,0.5C42,46,42.3,46.2,42.9,46.3z M58.7,49.7c0-0.4-0.3-0.6-0.6-0.6L43,48.9
	c-0.3,0-0.6,0.3-0.6,0.6l0,0.1c0,0.4,0.3,0.6,0.6,0.6L58,50.4c0.3,0,0.6-0.3,0.6-0.6L58.7,49.7z M58.6,53.4c0-0.4-0.4-0.8-0.8-0.8
	l-14.9,0c-0.4,0-0.8,0.4-0.8,0.8l0,0.1c0,0.4,0.4,0.8,0.8,0.8l14.9,0C58.3,54.3,58.6,54,58.6,53.4L58.6,53.4z M37.9,72.1l0.1-9.2
	c0-0.5-0.4-0.8-0.9-0.8H26.7c-0.4,0-0.7,0.3-0.7,0.7V73c0,0.5,0.4,1,1,1h8.8C37.2,74,37.8,73.4,37.9,72.1z M58.9,63.8
	c0-0.4-0.4-0.8-0.8-0.8l-15.3,0c-0.4,0-0.8,0.4-0.8,0.8l0,0.4c0,0.4,0.4,0.8,0.8,0.8l15.3,0c0.4,0,0.8-0.4,0.8-0.8L58.9,63.8z
	 M58.3,68c0.2-0.5-0.2-1-0.7-1c-4.4,0-8.8,0-13.2,0c-2.7,0-3.2,0.5-1.4,1.7c0.4,0.2,0.8,0.4,1.3,0.4c3.8,0,7.6,0,11.4,0
	c0.1,0,0.3,0,0.8,0.1C57.5,69.2,58,68.8,58.3,68z M58.6,72.5c0.2-0.5,0.2-1,0.1-1.2c-0.1-0.2-0.5-0.3-1-0.3c-5.1,0-10.1,0-15,0.1
	c-1.2,0-1.3,0.4-0.4,1.1c0.9,0.7,1.8,1,2.9,0.9c1-0.1,1.6-0.1,1.6-0.1c3.9,0.1,7.7,0,11.5-0.2C58.4,72.8,58.6,72.7,58.6,72.5z"/>
<path id="path7393" class="st4" d="M71.8,29.3c-0.5-2.2-0.4-4.5,0.4-6.7c0.3-0.8,1-1.4,1.8-1.6c2.9-0.7,4.5,0.3,4.8,3
	c0.2,2.4,0.3,4.1,0.1,5.3c0,0.3-0.3,0.6-0.6,0.6l-5.9,0C72.1,29.9,71.9,29.6,71.8,29.3z"/>
<path id="path7395" class="st3" d="M37.1,25.4c0.3,0.1,0.6,0.4,0.6,0.7l0.3,9.4c0,0.7-0.5,1.3-1.2,1.3l-10.1,0.1
	c-0.3,0-0.5-0.2-0.6-0.5c-0.3-3.5-0.3-6.9,0.2-10.4c0-0.3,0.3-0.5,0.6-0.6C30.3,24.8,33.7,24.8,37.1,25.4z M35.5,27.7
	c0-0.1-0.1-0.3-0.3-0.3l-7,0c-0.1,0-0.3,0.1-0.3,0.3l0,7c0,0.1,0.1,0.3,0.3,0.3l7,0c0.1,0,0.3-0.1,0.3-0.3L35.5,27.7z"/>
<path id="rect7397" class="st3" d="M43,26.1L57.5,26c0.5,0,1,0.4,1,0.9l0,0.1c0,0.5-0.4,1-0.9,1L43,28c-0.5,0-1-0.4-1-0.9l0-0.1
	C42,26.5,42.5,26.1,43,26.1z"/>
<path id="rect7399" class="st4" d="M28.3,27.4l7,0c0.1,0,0.3,0.1,0.3,0.3l0,7c0,0.1-0.1,0.3-0.3,0.3l-7,0c-0.1,0-0.3-0.1-0.3-0.3
	l0-7C28,27.5,28.1,27.4,28.3,27.4z"/>
<path id="rect7401" class="st3" d="M43,30L58,30c0.5,0,1,0.4,1,1l0,0.1c0,0.5-0.4,1-1,1L43,32c-0.5,0-1-0.4-1-1l0-0.1
	C42,30.5,42.4,30,43,30z"/>
<path id="path7403" class="st4" d="M75.7,77.6c-0.2,0.2-0.5,0.2-0.7,0c-2.1-2.2-3.1-4.4-3.1-6.7c0-12.5,0.1-25,0.2-37.4
	c0-0.3,0.2-0.5,0.5-0.5l5.6,0c0.5,0,0.9,0.4,0.9,0.9c0,11.9,0,23.7-0.1,35.5c0,1.7-0.3,3.2-0.9,4.3C77.4,75,76.6,76.3,75.7,77.6z"/>
<path id="rect7405" class="st3" d="M43,34l15,0c0.5,0,1,0.4,1,1l0,0c0,0.5-0.4,1-1,1l-15,0c-0.5,0-1-0.4-1-1l0,0
	C42,34.4,42.4,34,43,34z"/>
<path id="path7407" class="st3" d="M38,54.4c0,0.5-0.4,0.9-0.9,0.9l-10.2,0c-0.5,0-0.9-0.4-0.9-0.9l0-9.5c0-0.5,0.4-0.9,0.9-0.9
	l10.2,0c0.5,0,0.9,0.4,0.9,0.9L38,54.4z M35.8,46.3c0-0.1-0.1-0.3-0.3-0.3l-7.3,0c-0.1,0-0.3,0.1-0.3,0.3l0,6.5
	c0,0.1,0.1,0.3,0.3,0.3l7.3,0c0.1,0,0.3-0.1,0.3-0.3L35.8,46.3z"/>
<path id="path7409" class="st3" d="M42.9,46.3c-0.7-0.1-0.9-0.4-0.8-0.8c0.1-0.3,0.4-0.5,0.7-0.5h15.4c0.3,0,0.5,0.2,0.4,0.5
	c-0.3,0.9-1,1.4-2.1,1.3c-0.9,0-1.4-0.1-1.5-0.1C50.6,47,46.5,46.8,42.9,46.3z"/>
<path id="rect7411" class="st4" d="M28.2,46l7.3,0c0.1,0,0.3,0.1,0.3,0.3l0,6.5c0,0.1-0.1,0.3-0.3,0.3l-7.3,0
	c-0.1,0-0.3-0.1-0.3-0.3l0-6.5C28,46.1,28.1,46,28.2,46z"/>
<path id="rect7413" class="st3" d="M43,48.9l15.1,0.1c0.3,0,0.6,0.3,0.6,0.6l0,0.1c0,0.3-0.3,0.6-0.6,0.6l-15.1-0.1
	c-0.3,0-0.6-0.3-0.6-0.6l0-0.1C42.3,49.2,42.6,48.9,43,48.9z"/>
<path id="rect7415" class="st3" d="M42.9,52.7l14.9,0c0.4,0,0.8,0.4,0.8,0.8l0,0.1c0,0.4-0.4,0.8-0.8,0.8l-14.9,0
	c-0.4,0-0.8-0.4-0.8-0.8l0-0.1C42.1,53,42.5,52.7,42.9,52.7z"/>
<path id="path7417" class="st3" d="M37.9,72.1c0,1.3-0.7,1.9-2,1.9H27c-0.5,0-1-0.4-1-1V62.7c0-0.4,0.3-0.7,0.7-0.7h10.4
	c0.5,0,0.9,0.4,0.9,0.8L37.9,72.1z M35.4,64.3c0-0.2-0.2-0.3-0.3-0.3l-6.8,0c-0.2,0-0.3,0.2-0.3,0.3l0,7.1c0,0.2,0.2,0.3,0.3,0.3
	l6.8,0c0.2,0,0.3-0.2,0.3-0.3L35.4,64.3z"/>
<path id="rect7419" class="st3" d="M42.8,63l15.3,0c0.4,0,0.8,0.4,0.8,0.8l0,0.4c0,0.4-0.4,0.8-0.8,0.8l-15.3,0
	c-0.4,0-0.8-0.4-0.8-0.8l0-0.4C42,63.4,42.4,63,42.8,63z"/>
<path id="rect7421" class="st4" d="M28.3,64l6.8,0c0.2,0,0.3,0.2,0.3,0.3l0,7.1c0,0.2-0.2,0.3-0.3,0.3l-6.8,0
	c-0.2,0-0.3-0.2-0.3-0.3l0-7.1C28,64.2,28.1,64,28.3,64z"/>
<path id="path7423" class="st3" d="M58.3,68c-0.3,0.8-0.9,1.2-1.7,1.1C56.2,69,55.9,69,55.8,69c-3.8,0-7.6,0-11.4,0
	c-0.5,0-1-0.1-1.3-0.4c-1.8-1.1-1.3-1.7,1.4-1.7c4.4,0,8.8,0,13.2,0C58.2,67,58.5,67.5,58.3,68z"/>
<path id="path7425" class="st3" d="M58.6,72.5c-0.1,0.1-0.2,0.2-0.3,0.2c-3.8,0.3-7.6,0.3-11.5,0.2c0,0-0.6,0-1.6,0.1
	c-1.1,0.1-2-0.2-2.9-0.9c-0.9-0.7-0.8-1.1,0.4-1.1c4.9-0.1,9.9-0.1,15-0.1c0.5,0,0.8,0.1,1,0.3C58.9,71.6,58.8,72,58.6,72.5z"/>
</svg>
