<?xml version="1.0" encoding="UTF-8" standalone="no"?>
<!-- Generator: Adobe Illustrator 26.1.0, SVG Export Plug-In . SVG Version: 6.00 Build 0)  -->

<svg
   version="1.1"
   id="svg7427"
   inkscape:export-filename="icono vector dibujo fondo blanco.png"
   x="0px"
   y="0px"
   viewBox="0 0 99 99"
   style="enable-background:new 0 0 99 99;"
   xml:space="preserve"
   sodipodi:docname="icono vector dibujo fondo fondo blanco.svg"
   inkscape:export-xdpi="96"
   inkscape:export-ydpi="96"
   inkscape:version="1.2.2 (732a01da63, 2022-12-09)"
   xmlns:inkscape="http://www.inkscape.org/namespaces/inkscape"
   xmlns:sodipodi="http://sodipodi.sourceforge.net/DTD/sodipodi-0.dtd"
   xmlns="http://www.w3.org/2000/svg"
   xmlns:svg="http://www.w3.org/2000/svg"><g
   id="g966"
   transform="matrix(1.8146849,0,0,1.6145881,-43.428289,-33.259473)"><path
     id="path7403"
     inkscape:label="lapiz"
     sodipodi:nodetypes="aascsssca"
     class="st3"
     d="m 73.999826,80.95531 c -0.20433,0.10613 -0.510824,0.10613 -0.715154,0 -2.145462,-1.379672 -3.16711,-4.669664 -3.16711,-7.110625 0,-13.266093 0.102165,-26.532187 0.20433,-39.69215 0,-0.318387 0.204329,-0.530644 0.510824,-0.530644 h 5.721231 c 0.510824,0 0.919483,0.424515 0.919483,0.955158 0,12.629321 0,26.638315 -0.102164,39.161507 -0.20433,2.865477 -1.225979,5.837082 -3.37144,7.216754 z"
     style="fill:#e85a60;fill-opacity:0.752941;stroke-width:1.04128" /><path
     id="path7393"
     inkscape:label="borrador"
     class="st3"
     d="m 70.015397,29.895783 c -0.510824,-2.215523 -0.408659,-4.531752 0.40866,-6.747275 0.306494,-0.805645 1.021648,-1.409879 1.838967,-1.61129 2.96278,-0.704939 4.597417,0.302117 4.903912,3.021168 0.20433,2.416935 0.306494,4.12893 0.102165,5.337397 0,0.302117 -0.306495,0.604234 -0.612989,0.604234 h -6.027726 c -0.306494,0 -0.510824,-0.302117 -0.612989,-0.604234 z"
     style="fill:#e85a60;fill-opacity:0.752941;stroke-width:1.01433" /><path
     id="path1172"
     inkscape:label="libreta"
     sodipodi:nodetypes="csscsscsscssccscccccccccscssscsssccccssccccsssssccsssccscccsccssscccssccsccssccssccszzcczzccsccscccccsccccssccccsscccssccs"
     class="st3"
     d="m 39.735567,80.949351 c -11.851121,-0.100706 -11.340297,0 -12.566275,-0.604234 -1.123813,-0.503528 -1.941132,-1.61129 -2.247626,-3.021168 -0.20433,-0.805645 -0.20433,-48.540101 0,-50.352802 0.20433,-1.812701 -0.20433,-4.733164 0.20433,-5.035281 0.510824,-0.503528 43.828715,-0.503528 44.135209,-0.201411 0.306495,0.402823 0.102165,1.510584 0.102165,1.510584 v 13.393846 c 0,7.351509 0,20.141121 -0.102165,28.298275 L 69.15904,79.841589 68.954711,80.043 c -0.20433,0.302117 -1.328143,0.604234 -3.064945,0.805645 -1.123814,0.201411 -4.290924,0.201411 -26.154199,0.100706 z m 2.451956,-4.934575 c 0.510825,-0.302117 0.817319,-0.90635 0.919484,-1.510584 0.102165,-3.524696 0.102165,-6.143042 0.102165,-9.869149 l -0.306495,-0.302117 -0.306494,-0.302117 h -5.721231 -5.721231 l -0.20433,0.201411 -0.204329,0.201411 c 0,3.524697 -0.102165,7.049393 0,10.574089 0.102164,0.402822 0.102164,0.604234 0.408659,0.90635 l 0.20433,0.302117 h 5.210406 c 5.108242,0 5.108242,0 5.619066,-0.201411 z m 21.045957,-0.90635 c 0.817318,-0.100706 0.817318,-0.100706 1.021648,-0.302117 0.102165,-0.201411 0.20433,-0.503528 0.20433,-0.704939 0.102165,-0.402823 0,-0.503529 -0.20433,-0.805645 l -0.306494,-0.302117 c -5.619066,0.302117 -11.442462,-0.402823 -16.959363,0.302117 -0.510824,1.007056 -0.40866,1.611289 0.408659,2.014112 5.516901,0.100705 10.318649,0 15.83555,-0.201411 z m -0.20433,-3.826813 c 0.817319,-0.402823 1.225978,-1.510584 0.715154,-2.014112 l -0.20433,-0.201412 c -5.210406,0 -10.420813,-0.100705 -15.529055,0.100706 -1.123813,0.402822 -0.817319,1.409878 -0.20433,2.114818 5.108242,0.704939 7.253704,0.100705 14.303078,0.201411 0.306494,-0.100706 0.715153,-0.100706 0.919483,-0.201411 z m 1.225978,-4.330341 c 0.306495,-0.302117 0.306495,-0.402823 0.306495,-0.805645 0,-0.402823 0,-0.604234 -0.306495,-0.805645 L 63.948634,65.037865 H 47.60226 l -0.306495,0.302117 c -0.306494,0.302117 -0.306494,0.402822 -0.306494,0.805645 0,0.402822 0,0.604233 0.306494,0.805645 l 0.306495,0.302116 h 16.346374 z m -21.352451,-9.768444 0.306495,-0.302117 c 0,-3.323285 0.102165,-6.747275 0,-10.07056 0,-0.302117 -0.20433,-0.503528 -0.306495,-0.70494 L 42.596183,45.803095 H 31.255886 l -0.306495,0.302116 c -0.102165,0.100706 -0.306494,0.402823 -0.306494,0.70494 -0.102165,0.704939 -0.102165,9.466327 0,9.869149 0.102165,0.201411 0.204329,0.503528 0.408659,0.604234 4.086594,0.402822 5.925561,0.201411 11.442462,0.201411 z m 21.148121,-1.007056 c 0.306495,-0.402822 0.306495,-1.007056 0,-1.409879 l -0.306494,-0.302116 c -5.312572,0.201411 -10.727308,-0.302117 -16.039879,0.100705 -0.612989,0.302117 -0.817319,1.007056 -0.306495,1.510584 l 0.306495,0.302117 h 16.142044 z m 0,-3.927519 c 0.306495,-0.402822 0.40866,-0.90635 0.102165,-1.208467 -4.393088,-0.402822 -7.866692,-0.302117 -13.894418,-0.402822 -2.247626,0 -2.451956,0 -2.656285,0.201411 -0.102165,0.100706 -0.20433,0.302117 -0.20433,0.604234 0,0.704939 0.20433,0.90635 1.532473,1.007056 5.006077,-0.302117 10.114318,0.503528 15.120395,-0.201412 z m 0,-3.323285 c 0.306495,0 0.40866,-2.014112 0,-1.913406 -0.408659,0 -16.550703,-0.100706 -16.550703,-0.100706 -0.20433,0.604234 -0.20433,1.309173 -0.102165,1.913407 0.408659,0 13.894418,0.100705 16.652868,0.100705 2.758451,0 -0.306494,0 0,0 z M 42.800512,38.652997 c 0.20433,-1.61129 0.40866,-10.070561 0.20433,-10.7755 0,-1.711995 -1.430308,-1.309173 -3.064945,-1.409878 -0.715154,0 -8.275352,-0.201412 -8.479682,0.604233 -0.510824,0.805645 -0.408659,11.077617 -0.204329,11.68185 0.306494,0.100706 11.033802,0.100706 11.544626,-0.100705 z m 21.250286,-0.805645 c 0.61299,-0.402822 0.715154,-1.208467 0.20433,-1.711995 L 63.846469,35.732534 H 47.60226 l -0.306495,0.302117 c -0.612989,0.503528 -0.510824,1.409879 0.102165,1.812701 5.823396,0 9.194835,1.107762 16.652868,0 z m 0.20433,-4.229635 c 0.20433,-0.302117 0.306495,-0.402823 0.306495,-0.805645 0,-0.503528 -0.20433,-1.007056 -0.510825,-1.208468 -0.306494,-0.201411 -15.529055,-0.100705 -16.142044,0 -0.919483,0.201412 -1.123813,1.510585 -0.306494,2.215524 5.92556,0.201411 9.297,0.100705 16.448538,0.100705 z m -5.516901,-3.625402 4.699582,-0.100706 0.306495,-0.302117 c 0.510824,-0.503528 0.510824,-1.107761 0,-1.510584 l -0.306495,-0.302116 c -5.108241,0.402822 -12.05545,-0.906351 -16.346373,0.604233 -0.20433,0.503528 -0.102165,1.208467 0.306494,1.409879 0.306495,0.201411 0.306495,0.201411 3.473605,0.201411 1.838967,0.100705 5.312571,0 7.866692,0 z"
     style="fill:#e85a60;fill-opacity:0.752941;stroke-width:1.01433" /></g><defs
   id="defs15">
	
	
	
		
</defs><sodipodi:namedview
   id="namedview13"
   pagecolor="#ffffff"
   bordercolor="#000000"
   borderopacity="0.25"
   inkscape:showpageshadow="2"
   inkscape:pageopacity="0.0"
   inkscape:pagecheckerboard="0"
   inkscape:deskcolor="#d1d1d1"
   showgrid="false"
   inkscape:zoom="5.9211265"
   inkscape:cx="38.84396"
   inkscape:cy="53.03045"
   inkscape:window-width="1920"
   inkscape:window-height="1009"
   inkscape:window-x="-8"
   inkscape:window-y="-8"
   inkscape:window-maximized="1"
   inkscape:current-layer="g966" />
<style
   type="text/css"
   id="style2">
	.st0{fill:#DD1B24;}
	.st1{enable-background:new    ;}
	.st2{fill:#FFFFFF;}
	.st3{fill:#FFCCCC;fill-opacity:0.7529;}
</style>





</svg>
