<?xml version="1.0" encoding="utf-8"?>
<!-- Generator: Adobe Illustrator 26.1.0, SVG Export Plug-In . SVG Version: 6.00 Build 0)  -->
<svg version="1.1"
	 id="svg7427" inkscape:export-filename="icono vector dibujo ref.png" xmlns:inkscape="http://www.inkscape.org/namespaces/inkscape" xmlns:sodipodi="http://sodipodi.sourceforge.net/DTD/sodipodi-0.dtd" xmlns:svg="http://www.w3.org/2000/svg"
	 xmlns="http://www.w3.org/2000/svg" xmlns:xlink="http://www.w3.org/1999/xlink" x="0px" y="0px" viewBox="0 0 99 99"
	 style="enable-background:new 0 0 99 99;" xml:space="preserve">
<style type="text/css">
	.st0{fill:#DD1B24;}
	.st1{enable-background:new    ;}
	.st2{fill:#FFFFFF;}
	.st3{fill:#FFCCCC;fill-opacity:0.7529;}
</style>
<path id="path7389" inkscape:label="fondo" sodipodi:nodetypes="ccccc" class="st0" d="M15,0h69c8.3,0,15,6.7,15,15v69
	c0,8.3-6.7,15-15,15H15C6.7,99,0,92.3,0,84V15C0,6.7,6.7,0,15,0z"/>
<g id="g3271" class="st1">
	<path id="path3262" inkscape:label="lapiz" sodipodi:nodetypes="aascsssca" class="st2" d="M75.7,77.6c-0.2,0.1-0.5,0.1-0.7,0
		c-2.1-1.3-3.1-4.4-3.1-6.7c0-12.5,0.1-25,0.2-37.4c0-0.3,0.2-0.5,0.5-0.5h5.6c0.5,0,0.9,0.4,0.9,0.9c0,11.9,0,25.1-0.1,36.9
		C78.8,73.5,77.8,76.3,75.7,77.6z"/>
	<path id="path3264" inkscape:label="borrador" class="st2" d="M71.8,29.3c-0.5-2.2-0.4-4.5,0.4-6.7c0.3-0.8,1-1.4,1.8-1.6
		c2.9-0.7,4.5,0.3,4.8,3c0.2,2.4,0.3,4.1,0.1,5.3c0,0.3-0.3,0.6-0.6,0.6h-5.9C72.1,29.9,71.9,29.6,71.8,29.3z"/>
	
		<path id="path3266" inkscape:label="libreta" sodipodi:nodetypes="csscsscsscssccscccccccccscssscsssccccssccccsssssccsssccscccsccssscccssccsccssccssccszzcczzccsccscccccsccccssccccsscccssccs" class="st2" d="
		M38.2,79.7c-11.6-0.1-11.1,0-12.3-0.6c-1.1-0.5-1.9-1.6-2.2-3c-0.2-0.8-0.2-48.2,0-50s-0.2-4.7,0.2-5c0.5-0.5,42.9-0.5,43.2-0.2
		c0.3,0.4,0.1,1.5,0.1,1.5v13.3c0,7.3,0,20-0.1,28.1L67,78.6l-0.2,0.2c-0.2,0.3-1.3,0.6-3,0.8C62.7,79.8,59.6,79.8,38.2,79.7
		L38.2,79.7z M40.6,74.8c0.5-0.3,0.8-0.9,0.9-1.5c0.1-3.5,0.1-6.1,0.1-9.8l-0.3-0.3L41,62.9h-5.6h-5.6l-0.2,0.2l-0.2,0.2
		c0,3.5-0.1,7,0,10.5c0.1,0.4,0.1,0.6,0.4,0.9L30,75h5.1C40.1,75,40.1,75,40.6,74.8L40.6,74.8z M61.2,73.9c0.8-0.1,0.8-0.1,1-0.3
		c0.1-0.2,0.2-0.5,0.2-0.7c0.1-0.4,0-0.5-0.2-0.8l-0.3-0.3c-5.5,0.3-11.2-0.4-16.6,0.3c-0.5,1-0.4,1.6,0.4,2
		C51.1,74.2,55.8,74.1,61.2,73.9z M61,70.1c0.8-0.4,1.2-1.5,0.7-2l-0.2-0.2c-5.1,0-10.2-0.1-15.2,0.1c-1.1,0.4-0.8,1.4-0.2,2.1
		c5,0.7,7.1,0.1,14,0.2C60.4,70.2,60.8,70.2,61,70.1z M62.2,65.8c0.3-0.3,0.3-0.4,0.3-0.8s0-0.6-0.3-0.8l-0.3-0.3h-16l-0.3,0.3
		c-0.3,0.3-0.3,0.4-0.3,0.8s0,0.6,0.3,0.8l0.3,0.3h16L62.2,65.8z M41.3,56.1l0.3-0.3c0-3.3,0.1-6.7,0-10c0-0.3-0.2-0.5-0.3-0.7
		L41,44.8H29.9l-0.3,0.3c-0.1,0.1-0.3,0.4-0.3,0.7c-0.1,0.7-0.1,9.4,0,9.8c0.1,0.2,0.2,0.5,0.4,0.6c4,0.4,5.8,0.2,11.2,0.2
		L41.3,56.1z M62,55.1c0.3-0.4,0.3-1,0-1.4l-0.3-0.3c-5.2,0.2-10.5-0.3-15.7,0.1c-0.6,0.3-0.8,1-0.3,1.5l0.3,0.3h15.8L62,55.1z
		 M62,51.2c0.3-0.4,0.4-0.9,0.1-1.2c-4.3-0.4-7.7-0.3-13.6-0.4c-2.2,0-2.4,0-2.6,0.2c-0.1,0.1-0.2,0.3-0.2,0.6c0,0.7,0.2,0.9,1.5,1
		C52.1,51.1,57.1,51.9,62,51.2z M62,47.9c0.3,0,0.4-2,0-1.9c-0.4,0-16.2-0.1-16.2-0.1c-0.2,0.6-0.2,1.3-0.1,1.9
		C46.1,47.8,59.3,47.9,62,47.9C64.7,47.9,61.7,47.9,62,47.9z M41.2,37.7c0.2-1.6,0.4-10,0.2-10.7c0-1.7-1.4-1.3-3-1.4
		c-0.7,0-8.1-0.2-8.3,0.6c-0.5,0.8-0.4,11-0.2,11.6C30.2,37.9,40.7,37.9,41.2,37.7z M62,36.9c0.6-0.4,0.7-1.2,0.2-1.7l-0.4-0.4H45.9
		l-0.3,0.3c-0.6,0.5-0.5,1.4,0.1,1.8C51.4,36.9,54.7,38,62,36.9z M62.2,32.7c0.2-0.3,0.3-0.4,0.3-0.8c0-0.5-0.2-1-0.5-1.2
		s-15.2-0.1-15.8,0c-0.9,0.2-1.1,1.5-0.3,2.2C51.7,33.1,55,33,62,33L62.2,32.7z M56.8,29.1l4.6-0.1l0.3-0.3c0.5-0.5,0.5-1.1,0-1.5
		l-0.3-0.3c-5,0.4-11.8-0.9-16,0.6c-0.2,0.5-0.1,1.2,0.3,1.4c0.3,0.2,0.3,0.2,3.4,0.2C50.9,29.2,54.3,29.1,56.8,29.1z"/>
</g>
<path id="path7403" inkscape:label="lapiz" sodipodi:nodetypes="aascsssca" class="st3" d="M75.7,77.6c-0.2,0.1-0.5,0.1-0.7,0
	c-2.1-1.3-3.1-4.4-3.1-6.7c0-12.5,0.1-25,0.2-37.4c0-0.3,0.2-0.5,0.5-0.5h5.6c0.5,0,0.9,0.4,0.9,0.9c0,11.9,0,25.1-0.1,36.9
	C78.8,73.5,77.8,76.3,75.7,77.6z"/>
<path id="path7393" inkscape:label="borrador" class="st3" d="M71.8,29.3c-0.5-2.2-0.4-4.5,0.4-6.7c0.3-0.8,1-1.4,1.8-1.6
	c2.9-0.7,4.5,0.3,4.8,3c0.2,2.4,0.3,4.1,0.1,5.3c0,0.3-0.3,0.6-0.6,0.6h-5.9C72.1,29.9,71.9,29.6,71.8,29.3z"/>
<path id="path1172" inkscape:label="libreta" sodipodi:nodetypes="csscsscsscssccscccccccccscssscsssccccssccccsssssccsssccscccsccssscccssccsccssccssccszzcczzccsccscccccsccccssccccsscccssccs" class="st3" d="
	M38.2,79.7c-11.6-0.1-11.1,0-12.3-0.6c-1.1-0.5-1.9-1.6-2.2-3c-0.2-0.8-0.2-48.2,0-50s-0.2-4.7,0.2-5c0.5-0.5,42.9-0.5,43.2-0.2
	c0.3,0.4,0.1,1.5,0.1,1.5v13.3c0,7.3,0,20-0.1,28.1L67,78.6l-0.2,0.2c-0.2,0.3-1.3,0.6-3,0.8C62.7,79.8,59.6,79.8,38.2,79.7
	L38.2,79.7z M40.6,74.8c0.5-0.3,0.8-0.9,0.9-1.5c0.1-3.5,0.1-6.1,0.1-9.8l-0.3-0.3L41,62.9h-5.6h-5.6l-0.2,0.2l-0.2,0.2
	c0,3.5-0.1,7,0,10.5c0.1,0.4,0.1,0.6,0.4,0.9L30,75h5.1C40.1,75,40.1,75,40.6,74.8L40.6,74.8z M61.2,73.9c0.8-0.1,0.8-0.1,1-0.3
	c0.1-0.2,0.2-0.5,0.2-0.7c0.1-0.4,0-0.5-0.2-0.8l-0.3-0.3c-5.5,0.3-11.2-0.4-16.6,0.3c-0.5,1-0.4,1.6,0.4,2
	C51.1,74.2,55.8,74.1,61.2,73.9z M61,70.1c0.8-0.4,1.2-1.5,0.7-2l-0.2-0.2c-5.1,0-10.2-0.1-15.2,0.1c-1.1,0.4-0.8,1.4-0.2,2.1
	c5,0.7,7.1,0.1,14,0.2C60.4,70.2,60.8,70.2,61,70.1z M62.2,65.8c0.3-0.3,0.3-0.4,0.3-0.8s0-0.6-0.3-0.8l-0.3-0.3h-16l-0.3,0.3
	c-0.3,0.3-0.3,0.4-0.3,0.8s0,0.6,0.3,0.8l0.3,0.3h16L62.2,65.8z M41.3,56.1l0.3-0.3c0-3.3,0.1-6.7,0-10c0-0.3-0.2-0.5-0.3-0.7
	L41,44.8H29.9l-0.3,0.3c-0.1,0.1-0.3,0.4-0.3,0.7c-0.1,0.7-0.1,9.4,0,9.8c0.1,0.2,0.2,0.5,0.4,0.6c4,0.4,5.8,0.2,11.2,0.2L41.3,56.1
	z M62,55.1c0.3-0.4,0.3-1,0-1.4l-0.3-0.3c-5.2,0.2-10.5-0.3-15.7,0.1c-0.6,0.3-0.8,1-0.3,1.5l0.3,0.3h15.8L62,55.1z M62,51.2
	c0.3-0.4,0.4-0.9,0.1-1.2c-4.3-0.4-7.7-0.3-13.6-0.4c-2.2,0-2.4,0-2.6,0.2c-0.1,0.1-0.2,0.3-0.2,0.6c0,0.7,0.2,0.9,1.5,1
	C52.1,51.1,57.1,51.9,62,51.2z M62,47.9c0.3,0,0.4-2,0-1.9c-0.4,0-16.2-0.1-16.2-0.1c-0.2,0.6-0.2,1.3-0.1,1.9
	C46.1,47.8,59.3,47.9,62,47.9C64.7,47.9,61.7,47.9,62,47.9z M41.2,37.7c0.2-1.6,0.4-10,0.2-10.7c0-1.7-1.4-1.3-3-1.4
	c-0.7,0-8.1-0.2-8.3,0.6c-0.5,0.8-0.4,11-0.2,11.6C30.2,37.9,40.7,37.9,41.2,37.7z M62,36.9c0.6-0.4,0.7-1.2,0.2-1.7l-0.4-0.4H45.9
	l-0.3,0.3c-0.6,0.5-0.5,1.4,0.1,1.8C51.4,36.9,54.7,38,62,36.9z M62.2,32.7c0.2-0.3,0.3-0.4,0.3-0.8c0-0.5-0.2-1-0.5-1.2
	s-15.2-0.1-15.8,0c-0.9,0.2-1.1,1.5-0.3,2.2C51.7,33.1,55,33,62,33L62.2,32.7z M56.8,29.1l4.6-0.1l0.3-0.3c0.5-0.5,0.5-1.1,0-1.5
	l-0.3-0.3c-5,0.4-11.8-0.9-16,0.6c-0.2,0.5-0.1,1.2,0.3,1.4c0.3,0.2,0.3,0.2,3.4,0.2C50.9,29.2,54.3,29.1,56.8,29.1z"/>
</svg>
