<?xml version="1.0" encoding="UTF-8" standalone="no"?>
<!-- Generator: Adobe Illustrator 26.1.0, SVG Export Plug-In . SVG Version: 6.00 Build 0)  -->

<svg
   version="1.1"
   id="svg7427"
   inkscape:export-filename="Logo texto full colores apagados.png"
   x="0px"
   y="0px"
   viewBox="0 0 760 99"
   xml:space="preserve"
   sodipodi:docname="Logo texto full colores apagados.svg"
   inkscape:version="1.2.2 (732a01da63, 2022-12-09)"
   width="760"
   height="99"
   inkscape:export-xdpi="96"
   inkscape:export-ydpi="96"
   xmlns:inkscape="http://www.inkscape.org/namespaces/inkscape"
   xmlns:sodipodi="http://sodipodi.sourceforge.net/DTD/sodipodi-0.dtd"
   xmlns="http://www.w3.org/2000/svg"
   xmlns:svg="http://www.w3.org/2000/svg"><defs
   id="defs161" /><sodipodi:namedview
   id="namedview159"
   pagecolor="#ffffff"
   bordercolor="#000000"
   borderopacity="0.25"
   inkscape:showpageshadow="2"
   inkscape:pageopacity="0.0"
   inkscape:pagecheckerboard="0"
   inkscape:deskcolor="#d1d1d1"
   showgrid="false"
   inkscape:zoom="1.0467172"
   inkscape:cx="161.45717"
   inkscape:cy="59.232809"
   inkscape:window-width="1920"
   inkscape:window-height="1009"
   inkscape:window-x="-8"
   inkscape:window-y="-8"
   inkscape:window-maximized="1"
   inkscape:current-layer="svg7427" />
<style
   type="text/css"
   id="style148">
	.st0{fill:#DD1B24;}
	.st1{enable-background:new    ;}
	.st2{fill:#FFFFFF;}
	.st3{fill:#FFCCCC;fill-opacity:0.7529;}
</style>
<path
   id="path7389"
   inkscape:label="fondo"
   sodipodi:nodetypes="ccccc"
   class="st0"
   d="m 15,0 h 69 c 8.3,0 15,6.7 15,15 v 69 c 0,8.3 -6.7,15 -15,15 H 15 C 6.7,99 0,92.3 0,84 V 15 C 0,6.7 6.7,0 15,0 Z" />
<g
   id="g3271"
   class="st1">
	<path
   id="path3262"
   inkscape:label="lapiz"
   sodipodi:nodetypes="aascsssca"
   class="st2"
   d="m 75.7,77.6 c -0.2,0.1 -0.5,0.1 -0.7,0 -2.1,-1.3 -3.1,-4.4 -3.1,-6.7 0,-12.5 0.1,-25 0.2,-37.4 0,-0.3 0.2,-0.5 0.5,-0.5 h 5.6 c 0.5,0 0.9,0.4 0.9,0.9 0,11.9 0,25.1 -0.1,36.9 -0.2,2.7 -1.2,5.5 -3.3,6.8 z" />
	<path
   id="path3264"
   inkscape:label="borrador"
   class="st2"
   d="m 71.8,29.3 c -0.5,-2.2 -0.4,-4.5 0.4,-6.7 0.3,-0.8 1,-1.4 1.8,-1.6 2.9,-0.7 4.5,0.3 4.8,3 0.2,2.4 0.3,4.1 0.1,5.3 0,0.3 -0.3,0.6 -0.6,0.6 h -5.9 c -0.3,0 -0.5,-0.3 -0.6,-0.6 z" />
	
		<path
   id="path3266"
   inkscape:label="libreta"
   sodipodi:nodetypes="csscsscsscssccscccccccccscssscsssccccssccccsssssccsssccscccsccssscccssccsccssccssccszzcczzccsccscccccsccccssccccsscccssccs"
   class="st2"
   d="m 38.2,79.7 c -11.6,-0.1 -11.1,0 -12.3,-0.6 -1.1,-0.5 -1.9,-1.6 -2.2,-3 -0.2,-0.8 -0.2,-48.2 0,-50 0.2,-1.8 -0.2,-4.7 0.2,-5 0.5,-0.5 42.9,-0.5 43.2,-0.2 0.3,0.4 0.1,1.5 0.1,1.5 v 13.3 c 0,7.3 0,20 -0.1,28.1 L 67,78.6 66.8,78.8 c -0.2,0.3 -1.3,0.6 -3,0.8 -1.1,0.2 -4.2,0.2 -25.6,0.1 z m 2.4,-4.9 c 0.5,-0.3 0.8,-0.9 0.9,-1.5 0.1,-3.5 0.1,-6.1 0.1,-9.8 L 41.3,63.2 41,62.9 h -5.6 -5.6 l -0.2,0.2 -0.2,0.2 c 0,3.5 -0.1,7 0,10.5 0.1,0.4 0.1,0.6 0.4,0.9 L 30,75 h 5.1 c 5,0 5,0 5.5,-0.2 z m 20.6,-0.9 c 0.8,-0.1 0.8,-0.1 1,-0.3 0.1,-0.2 0.2,-0.5 0.2,-0.7 0.1,-0.4 0,-0.5 -0.2,-0.8 l -0.3,-0.3 c -5.5,0.3 -11.2,-0.4 -16.6,0.3 -0.5,1 -0.4,1.6 0.4,2 5.4,0.1 10.1,0 15.5,-0.2 z M 61,70.1 c 0.8,-0.4 1.2,-1.5 0.7,-2 l -0.2,-0.2 c -5.1,0 -10.2,-0.1 -15.2,0.1 -1.1,0.4 -0.8,1.4 -0.2,2.1 5,0.7 7.1,0.1 14,0.2 0.3,-0.1 0.7,-0.1 0.9,-0.2 z m 1.2,-4.3 c 0.3,-0.3 0.3,-0.4 0.3,-0.8 0,-0.4 0,-0.6 -0.3,-0.8 l -0.3,-0.3 h -16 l -0.3,0.3 c -0.3,0.3 -0.3,0.4 -0.3,0.8 0,0.4 0,0.6 0.3,0.8 l 0.3,0.3 h 16 z m -20.9,-9.7 0.3,-0.3 c 0,-3.3 0.1,-6.7 0,-10 0,-0.3 -0.2,-0.5 -0.3,-0.7 L 41,44.8 H 29.9 l -0.3,0.3 c -0.1,0.1 -0.3,0.4 -0.3,0.7 -0.1,0.7 -0.1,9.4 0,9.8 0.1,0.2 0.2,0.5 0.4,0.6 4,0.4 5.8,0.2 11.2,0.2 z m 20.7,-1 c 0.3,-0.4 0.3,-1 0,-1.4 l -0.3,-0.3 c -5.2,0.2 -10.5,-0.3 -15.7,0.1 -0.6,0.3 -0.8,1 -0.3,1.5 l 0.3,0.3 h 15.8 z m 0,-3.9 c 0.3,-0.4 0.4,-0.9 0.1,-1.2 -4.3,-0.4 -7.7,-0.3 -13.6,-0.4 -2.2,0 -2.4,0 -2.6,0.2 -0.1,0.1 -0.2,0.3 -0.2,0.6 0,0.7 0.2,0.9 1.5,1 4.9,-0.3 9.9,0.5 14.8,-0.2 z m 0,-3.3 c 0.3,0 0.4,-2 0,-1.9 -0.4,0 -16.2,-0.1 -16.2,-0.1 -0.2,0.6 -0.2,1.3 -0.1,1.9 0.4,0 13.6,0.1 16.3,0.1 2.7,0 -0.3,0 0,0 z M 41.2,37.7 c 0.2,-1.6 0.4,-10 0.2,-10.7 0,-1.7 -1.4,-1.3 -3,-1.4 -0.7,0 -8.1,-0.2 -8.3,0.6 -0.5,0.8 -0.4,11 -0.2,11.6 0.3,0.1 10.8,0.1 11.3,-0.1 z M 62,36.9 c 0.6,-0.4 0.7,-1.2 0.2,-1.7 L 61.8,34.8 H 45.9 l -0.3,0.3 c -0.6,0.5 -0.5,1.4 0.1,1.8 5.7,0 9,1.1 16.3,0 z m 0.2,-4.2 c 0.2,-0.3 0.3,-0.4 0.3,-0.8 0,-0.5 -0.2,-1 -0.5,-1.2 -0.3,-0.2 -15.2,-0.1 -15.8,0 -0.9,0.2 -1.1,1.5 -0.3,2.2 C 51.7,33.1 55,33 62,33 Z m -5.4,-3.6 4.6,-0.1 0.3,-0.3 c 0.5,-0.5 0.5,-1.1 0,-1.5 l -0.3,-0.3 c -5,0.4 -11.8,-0.9 -16,0.6 -0.2,0.5 -0.1,1.2 0.3,1.4 0.3,0.2 0.3,0.2 3.4,0.2 1.8,0.1 5.2,0 7.7,0 z" />
</g>
<path
   id="path7403"
   inkscape:label="lapiz"
   sodipodi:nodetypes="aascsssca"
   class="st3"
   d="m 75.7,77.6 c -0.2,0.1 -0.5,0.1 -0.7,0 -2.1,-1.3 -3.1,-4.4 -3.1,-6.7 0,-12.5 0.1,-25 0.2,-37.4 0,-0.3 0.2,-0.5 0.5,-0.5 h 5.6 c 0.5,0 0.9,0.4 0.9,0.9 0,11.9 0,25.1 -0.1,36.9 -0.2,2.7 -1.2,5.5 -3.3,6.8 z" />
<path
   id="path7393"
   inkscape:label="borrador"
   class="st3"
   d="m 71.8,29.3 c -0.5,-2.2 -0.4,-4.5 0.4,-6.7 0.3,-0.8 1,-1.4 1.8,-1.6 2.9,-0.7 4.5,0.3 4.8,3 0.2,2.4 0.3,4.1 0.1,5.3 0,0.3 -0.3,0.6 -0.6,0.6 h -5.9 c -0.3,0 -0.5,-0.3 -0.6,-0.6 z" />
<path
   id="path1172"
   inkscape:label="libreta"
   sodipodi:nodetypes="csscsscsscssccscccccccccscssscsssccccssccccsssssccsssccscccsccssscccssccsccssccssccszzcczzccsccscccccsccccssccccsscccssccs"
   class="st3"
   d="m 38.2,79.7 c -11.6,-0.1 -11.1,0 -12.3,-0.6 -1.1,-0.5 -1.9,-1.6 -2.2,-3 -0.2,-0.8 -0.2,-48.2 0,-50 0.2,-1.8 -0.2,-4.7 0.2,-5 0.5,-0.5 42.9,-0.5 43.2,-0.2 0.3,0.4 0.1,1.5 0.1,1.5 v 13.3 c 0,7.3 0,20 -0.1,28.1 L 67,78.6 66.8,78.8 c -0.2,0.3 -1.3,0.6 -3,0.8 -1.1,0.2 -4.2,0.2 -25.6,0.1 z m 2.4,-4.9 c 0.5,-0.3 0.8,-0.9 0.9,-1.5 0.1,-3.5 0.1,-6.1 0.1,-9.8 L 41.3,63.2 41,62.9 h -5.6 -5.6 l -0.2,0.2 -0.2,0.2 c 0,3.5 -0.1,7 0,10.5 0.1,0.4 0.1,0.6 0.4,0.9 L 30,75 h 5.1 c 5,0 5,0 5.5,-0.2 z m 20.6,-0.9 c 0.8,-0.1 0.8,-0.1 1,-0.3 0.1,-0.2 0.2,-0.5 0.2,-0.7 0.1,-0.4 0,-0.5 -0.2,-0.8 l -0.3,-0.3 c -5.5,0.3 -11.2,-0.4 -16.6,0.3 -0.5,1 -0.4,1.6 0.4,2 5.4,0.1 10.1,0 15.5,-0.2 z M 61,70.1 c 0.8,-0.4 1.2,-1.5 0.7,-2 l -0.2,-0.2 c -5.1,0 -10.2,-0.1 -15.2,0.1 -1.1,0.4 -0.8,1.4 -0.2,2.1 5,0.7 7.1,0.1 14,0.2 0.3,-0.1 0.7,-0.1 0.9,-0.2 z m 1.2,-4.3 c 0.3,-0.3 0.3,-0.4 0.3,-0.8 0,-0.4 0,-0.6 -0.3,-0.8 l -0.3,-0.3 h -16 l -0.3,0.3 c -0.3,0.3 -0.3,0.4 -0.3,0.8 0,0.4 0,0.6 0.3,0.8 l 0.3,0.3 h 16 z m -20.9,-9.7 0.3,-0.3 c 0,-3.3 0.1,-6.7 0,-10 0,-0.3 -0.2,-0.5 -0.3,-0.7 L 41,44.8 H 29.9 l -0.3,0.3 c -0.1,0.1 -0.3,0.4 -0.3,0.7 -0.1,0.7 -0.1,9.4 0,9.8 0.1,0.2 0.2,0.5 0.4,0.6 4,0.4 5.8,0.2 11.2,0.2 z m 20.7,-1 c 0.3,-0.4 0.3,-1 0,-1.4 l -0.3,-0.3 c -5.2,0.2 -10.5,-0.3 -15.7,0.1 -0.6,0.3 -0.8,1 -0.3,1.5 l 0.3,0.3 h 15.8 z m 0,-3.9 c 0.3,-0.4 0.4,-0.9 0.1,-1.2 -4.3,-0.4 -7.7,-0.3 -13.6,-0.4 -2.2,0 -2.4,0 -2.6,0.2 -0.1,0.1 -0.2,0.3 -0.2,0.6 0,0.7 0.2,0.9 1.5,1 4.9,-0.3 9.9,0.5 14.8,-0.2 z m 0,-3.3 c 0.3,0 0.4,-2 0,-1.9 -0.4,0 -16.2,-0.1 -16.2,-0.1 -0.2,0.6 -0.2,1.3 -0.1,1.9 0.4,0 13.6,0.1 16.3,0.1 2.7,0 -0.3,0 0,0 z M 41.2,37.7 c 0.2,-1.6 0.4,-10 0.2,-10.7 0,-1.7 -1.4,-1.3 -3,-1.4 -0.7,0 -8.1,-0.2 -8.3,0.6 -0.5,0.8 -0.4,11 -0.2,11.6 0.3,0.1 10.8,0.1 11.3,-0.1 z M 62,36.9 c 0.6,-0.4 0.7,-1.2 0.2,-1.7 L 61.8,34.8 H 45.9 l -0.3,0.3 c -0.6,0.5 -0.5,1.4 0.1,1.8 5.7,0 9,1.1 16.3,0 z m 0.2,-4.2 c 0.2,-0.3 0.3,-0.4 0.3,-0.8 0,-0.5 -0.2,-1 -0.5,-1.2 -0.3,-0.2 -15.2,-0.1 -15.8,0 -0.9,0.2 -1.1,1.5 -0.3,2.2 C 51.7,33.1 55,33 62,33 Z m -5.4,-3.6 4.6,-0.1 0.3,-0.3 c 0.5,-0.5 0.5,-1.1 0,-1.5 l -0.3,-0.3 c -5,0.4 -11.8,-0.9 -16,0.6 -0.2,0.5 -0.1,1.2 0.3,1.4 0.3,0.2 0.3,0.2 3.4,0.2 1.8,0.1 5.2,0 7.7,0 z" />
<text
   xml:space="preserve"
   style="font-weight:bold;font-size:134.513px;font-family:'Comic Sans MS';-inkscape-font-specification:'Comic Sans MS Bold';letter-spacing:-10px;fill:#a6141b;stroke-width:2.52214"
   x="107.62135"
   y="97.357361"
   id="text510"><tspan
     sodipodi:role="line"
     id="tspan508"
     x="107.62135"
     y="97.357361"
     style="font-style:normal;font-variant:normal;font-weight:bold;font-stretch:normal;font-family:'Glaschu Inline';-inkscape-font-specification:'Glaschu Inline Bold';stroke-width:2.52214"><tspan
       style="fill:#0d967c;fill-opacity:1;stroke-width:2.52214"
       id="tspan1847">BRAIN</tspan><tspan
       style="font-size:85.3333px"
       id="tspan16272"> </tspan><tspan
       style="fill:#06a014;fill-opacity:1;stroke-width:2.52214"
       id="tspan3407">BOOST</tspan></tspan></text></svg>
